<svg version="1.1" id="Layer_1" xmlns="http://www.w3.org/2000/svg" xmlns:xlink="http://www.w3.org/1999/xlink" x="0px" y="0px"
	 viewBox="0 0 259.8 259.8" style="enable-background:new 0 0 259.8 259.8;" xml:space="preserve">
<style type="text/css">
	.st0{fill:#D3BD62;}
	.st1{fill:#7D7400;}
	.st2{fill:#F4E398;}
	.st3{fill:#D1C046;}
	.st4{opacity:0.61;}
	.st5{fill:#505050;}
	.st6{fill:#EFEFEF;}
	.st7{fill:#F4F4F4;}
	.st8{fill:#BDBDBD;}
</style>
<g>
	<g>
		<circle class="st0" cx="129.9" cy="129.9" r="122"/>
	</g>
	<g>
		<path class="st0" d="M129.9,257.9c-70.6,0-128-57.4-128-128c0-70.6,57.4-128,128-128c70.6,0,128,57.4,128,128
			C257.9,200.5,200.5,257.9,129.9,257.9z M129.9,13.9c-64,0-116,52-116,116c0,64,52,116,116,116c64,0,116-52,116-116
			C245.9,65.9,193.9,13.9,129.9,13.9z"/>
	</g>
	<g>
		<path class="st1" d="M129.9,253.4C61.8,253.4,6.4,198,6.4,129.9C6.4,61.8,61.8,6.4,129.9,6.4c68.1,0,123.5,55.4,123.5,123.5
			C253.4,198,198,253.4,129.9,253.4z M129.9,9.4C63.4,9.4,9.4,63.4,9.4,129.9c0,66.4,54.1,120.5,120.5,120.5
			c66.4,0,120.5-54.1,120.5-120.5C250.4,63.4,196.3,9.4,129.9,9.4z"/>
	</g>
</g>
<circle class="st2" cx="129.8" cy="71.7" r="47.9"/>
<path class="st3" d="M206.4,145.7c-3-10.3-7.5-19.6-12.8-26.4c-3.3-12.1-8.6-23.2-15.8-32.6c-9.4-12.3-21.2-20.5-34-23.9
	c0.5-4.6-0.7-10.1-3.9-15.1c-5.8-9.2-15.7-13.3-22.2-9.3c-6.4,4.1-7,14.8-1.2,24c0,0.1,0.1,0.1,0.1,0.2c-13,3.4-24.9,11.6-34.5,24.1
	c-7.6,10-13.2,21.9-16.4,34.9c-4.6,6.6-8.4,14.9-11.1,24.1c-3.3,11.4-4.3,22.7-2.9,31.8c1.3,8.6,4.6,14.3,9.3,16.5
	c0.4,0.2,0.9,0.4,1.3,0.5c2.9,0.9,6.1,0.4,9.4-1.3c2.8,6.3,6.3,12.1,10.4,17.4c12.7,16.6,29.7,25.8,47.8,25.8s35-9.2,47.8-25.8
	c4.2-5.4,7.7-11.5,10.6-17.9c3.6,2.1,7.1,2.8,10.3,1.8c0.5-0.1,0.9-0.3,1.3-0.5c4.7-2.1,8-7.9,9.3-16.5
	C210.7,168.4,209.7,157.1,206.4,145.7z"/>
<g class="st4">
	<g>
		
			<ellipse transform="matrix(0.9616 -0.2744 0.2744 0.9616 -34.4555 56.9552)" class="st5" cx="186.4" cy="151.7" rx="20.2" ry="43.8"/>
		<path d="M200.1,194.1c-0.4,0.2-0.9,0.4-1.3,0.5c-5.4,1.6-11.8-1.4-18-8.6c-6-7-11.1-17.1-14.4-28.5c-3.3-11.4-4.3-22.7-2.9-31.8
			c1.4-9.3,5.2-15.4,10.6-17c5.4-1.6,11.8,1.4,18,8.6c6,7,11.1,17.1,14.4,28.5l0,0c3.3,11.4,4.3,22.7,2.9,31.8
			C208.1,186.1,204.8,191.9,200.1,194.1z M173.3,110.8c-9.3,4.2-11.9,24.5-5.6,46.4c6.5,22.8,20.2,38.9,30.5,35.8
			c10.3-3,13.3-24,6.8-46.8c-6.5-22.8-20.2-38.9-30.5-35.8C174.1,110.4,173.7,110.6,173.3,110.8z"/>
	</g>
	<g>
		
			<ellipse transform="matrix(0.2744 -0.9616 0.9616 0.2744 -91.4572 182.1058)" class="st5" cx="74.9" cy="151.7" rx="43.8" ry="20.2"/>
		<path d="M52,177.6c-1.4-9.2-0.4-20.5,2.9-31.8l0,0c3.3-11.4,8.4-21.5,14.4-28.5c6.1-7.1,12.5-10.2,18-8.6c5.4,1.6,9.2,7.6,10.6,17
			c1.4,9.2,0.4,20.5-2.9,31.8c-3.3,11.4-8.4,21.5-14.4,28.5c-6.1,7.1-12.5,10.2-18,8.6c-0.5-0.1-0.9-0.3-1.3-0.5
			C56.5,191.9,53.3,186.1,52,177.6z M86.8,110.3c-10.3-3-24,13.1-30.5,35.8C49.7,169,52.8,190,63.1,193c10.3,3,24-13.1,30.5-35.8
			c6.3-21.9,3.7-42.2-5.6-46.4C87.6,110.6,87.2,110.4,86.8,110.3z"/>
	</g>
	<g>
		<ellipse transform="matrix(0.8463 -0.5328 0.5328 0.8463 -9.6046 76.853)" class="st5" cx="128.4" cy="55.1" rx="13" ry="18.9"/>
		<path d="M133.2,73.3c-5.7,0-12.3-4-16.6-10.8c-5.8-9.2-5.2-19.9,1.2-24c6.4-4.1,16.4,0.1,22.2,9.3c5.8,9.2,5.2,19.9-1.2,24
			C137.2,72.8,135.2,73.3,133.2,73.3z M123.5,38.4c-1.7,0-3.4,0.4-4.8,1.3c-5.7,3.6-6.1,13.4-0.7,21.9c5.3,8.5,14.3,12.4,20,8.8
			c5.7-3.6,6.1-13.4,0.7-21.9C134.8,42.2,128.7,38.4,123.5,38.4z"/>
	</g>
	<g>
		<ellipse class="st5" cx="130.1" cy="148.7" rx="66.5" ry="86.9"/>
		<path d="M130.1,236.4c-18.1,0-35-9.2-47.8-25.8c-12.7-16.6-19.7-38.6-19.7-62c0-23.4,7-45.4,19.7-62
			c12.7-16.6,29.7-25.8,47.8-25.8s35,9.2,47.8,25.8c12.7,16.6,19.7,38.6,19.7,62s-7,45.4-19.7,62
			C165.1,227.3,148.2,236.4,130.1,236.4z M130.1,62.7c-36.2,0-65.6,38.6-65.6,86s29.4,86,65.6,86c36.2,0,65.6-38.6,65.6-86
			S166.3,62.7,130.1,62.7z"/>
	</g>
	<ellipse class="st6" cx="130.1" cy="179.1" rx="54.9" ry="55.9"/>
	<g>
		<g>
			<g>
				<ellipse class="st7" cx="150.9" cy="94" rx="8.8" ry="8.6"/>
				<path d="M150.9,103.2c-5.2,0-9.4-4.1-9.4-9.1c0-5,4.2-9.1,9.4-9.1c5.2,0,9.4,4.1,9.4,9.1C160.3,99.1,156.1,103.2,150.9,103.2z
					 M150.9,86c-4.5,0-8.2,3.6-8.2,8c0,4.4,3.7,8,8.2,8s8.2-3.6,8.2-8C159.2,89.6,155.5,86,150.9,86z"/>
			</g>
		</g>
		<ellipse cx="150.9" cy="94" rx="5" ry="4.9"/>
	</g>
	<g>
		<g>
			<g>
				<ellipse class="st7" cx="107.4" cy="93.5" rx="8.8" ry="8.6"/>
				<path d="M107.4,102.7c-5.2,0-9.4-4.1-9.4-9.1s4.2-9.1,9.4-9.1c5.2,0,9.4,4.1,9.4,9.1S112.6,102.7,107.4,102.7z M107.4,85.5
					c-4.5,0-8.2,3.6-8.2,8s3.7,8,8.2,8c4.5,0,8.2-3.6,8.2-8S112,85.5,107.4,85.5z"/>
			</g>
		</g>
		<ellipse cx="107.4" cy="93.5" rx="5" ry="4.9"/>
	</g>
	<g>
		<path class="st8" d="M97.8,204.4c0,0,3.1-8.4,8.9-8.9c5.8-0.4-4.9,25.3-8,25.3s-12.4-19.6-9.3-20.4
			C92.4,199.5,97.8,204.4,97.8,204.4z"/>
		<path d="M98.7,221.4c-3,0-9.7-13.4-10.4-18.7c-0.2-1.6,0.1-2.6,0.9-2.8c2.8-0.8,6.9,2.3,8.4,3.6c0.9-2.1,4-8.1,9.1-8.5
			c0.8-0.1,1.4,0.2,1.8,0.8c2,3.1-2.6,15.3-5.6,20.9C100.2,221.4,99,221.4,98.7,221.4z M90.1,200.8c-0.2,0-0.5,0-0.7,0.1
			c-0.1,0-0.3,0.4-0.2,1.6c0.8,5.8,7.5,17.7,9.4,17.7c0.2,0,1.3-0.7,3.1-4.1c3.8-7,7.2-17.5,5.7-19.8c-0.2-0.3-0.4-0.4-0.8-0.3
			c-5.4,0.4-8.4,8.5-8.4,8.5c-0.1,0.2-0.2,0.3-0.4,0.3c-0.2,0-0.4,0-0.5-0.1C96.1,203.6,92.5,200.8,90.1,200.8z"/>
	</g>
	<g>
		<path class="st8" d="M160.6,202.1c0,0-3.1-8.4-8.9-8.9s4.9,25.3,8,25.3s12.4-19.6,9.3-20.4C166,197.2,160.6,202.1,160.6,202.1z"/>
		<path d="M159.8,219.1c-0.4,0-1.5,0-4.1-4.7c-3-5.6-7.7-17.7-5.6-20.9c0.4-0.6,1-0.9,1.8-0.8c5.1,0.4,8.1,6.4,9.1,8.5
			c1.5-1.3,5.6-4.4,8.4-3.6c0.9,0.2,1.2,1.2,0.9,2.8C169.4,205.7,162.8,219.1,159.8,219.1z M151.6,193.7c-0.3,0-0.5,0.1-0.7,0.4
			c-1.5,2.3,1.9,12.8,5.7,19.8c1.8,3.4,2.9,4.1,3.1,4.1c1.9,0,8.5-12,9.4-17.7c0.2-1.2,0-1.6-0.2-1.6c-2.3-0.7-6.5,2.6-7.9,3.9
			c-0.1,0.1-0.3,0.2-0.5,0.1c-0.2,0-0.3-0.2-0.4-0.3c0-0.1-3.1-8.1-8.4-8.5C151.7,193.7,151.6,193.7,151.6,193.7z"/>
	</g>
	<g>
		<path class="st8" d="M108.1,106.1c-0.9-0.2-1.2-1.3-0.6-2c2.6-2.9,9.6-8.9,22.5-9.2c13.4-0.3,18.5,6.6,20.1,9.6
			c0.4,0.7,0,1.6-0.8,1.8C144.4,107.4,127.6,110.8,108.1,106.1z"/>
		<path d="M129,109.1c-6.3,0-13.5-0.6-21.1-2.5l0,0c-0.6-0.1-1.1-0.6-1.3-1.2c-0.2-0.6-0.1-1.3,0.4-1.7c2.5-2.7,9.6-9.1,22.9-9.4
			c0.2,0,0.5,0,0.7,0c13.1,0,18.3,6.9,19.9,9.9c0.3,0.5,0.3,1.1,0.1,1.6c-0.2,0.5-0.7,0.9-1.2,1C146.5,107.5,138.9,109.1,129,109.1z
			 M130.7,95.5c-0.2,0-0.5,0-0.7,0c-12.9,0.2-19.7,6.4-22.1,9c-0.2,0.2-0.2,0.5-0.1,0.6c0,0.1,0.1,0.4,0.5,0.4l0,0
			c19.4,4.7,36.2,1.3,40.9,0.2c0.2,0,0.4-0.2,0.4-0.4c0.1-0.2,0.1-0.4,0-0.6C148,101.9,143.2,95.5,130.7,95.5z"/>
	</g>
</g>
<path class="st1" d="M127,243.9C126.9,243.9,126.9,243.9,127,243.9c-2.1-0.1-4.1-0.2-6.1-0.3c-0.8-0.1-1.4-0.8-1.4-1.6
	c0.1-0.8,0.8-1.5,1.6-1.4c1.9,0.2,3.9,0.3,5.9,0.3c0.8,0,1.5,0.7,1.5,1.5C128.4,243.2,127.8,243.9,127,243.9z M133,243.8
	c-0.8,0-1.5-0.6-1.5-1.5c0-0.8,0.6-1.5,1.5-1.5c2-0.1,4-0.2,5.9-0.3c0.8-0.1,1.5,0.5,1.6,1.4s-0.6,1.5-1.4,1.6
	C137,243.7,135,243.8,133,243.8C133,243.8,133,243.8,133,243.8z M115,242.9c-0.1,0-0.1,0-0.2,0c-2-0.3-4-0.6-6-1
	c-0.8-0.2-1.4-0.9-1.2-1.8c0.2-0.8,0.9-1.4,1.7-1.2c1.9,0.4,3.9,0.7,5.8,0.9c0.8,0.1,1.4,0.9,1.3,1.7
	C116.4,242.4,115.8,242.9,115,242.9z M144.9,242.9c-0.7,0-1.4-0.5-1.5-1.3c-0.1-0.8,0.5-1.6,1.3-1.7c2-0.3,3.9-0.6,5.8-0.9
	c0.8-0.2,1.6,0.4,1.8,1.2c0.2,0.8-0.4,1.6-1.2,1.8c-2,0.4-4,0.7-6,1C145,242.9,144.9,242.9,144.9,242.9z M103.3,240.7
	c-0.1,0-0.2,0-0.4,0c-1.9-0.5-3.9-1-5.9-1.6c-0.8-0.2-1.2-1.1-1-1.9c0.2-0.8,1.1-1.2,1.9-1c1.9,0.6,3.8,1.1,5.7,1.5
	c0.8,0.2,1.3,1,1.1,1.8C104.6,240.3,103.9,240.7,103.3,240.7z M156.6,240.7c-0.7,0-1.3-0.5-1.5-1.1c-0.2-0.8,0.3-1.6,1.1-1.8
	c1.9-0.5,3.8-1,5.7-1.6c0.8-0.2,1.6,0.2,1.9,1c0.2,0.8-0.2,1.6-1,1.9c-1.9,0.6-3.9,1.1-5.9,1.6C156.9,240.7,156.8,240.7,156.6,240.7
	z M91.8,237.3c-0.2,0-0.3,0-0.5-0.1c-1.9-0.7-3.8-1.4-5.7-2.2c-0.8-0.3-1.1-1.2-0.8-2c0.3-0.8,1.2-1.1,2-0.8
	c1.8,0.8,3.7,1.5,5.5,2.2c0.8,0.3,1.2,1.1,0.9,1.9C93,236.9,92.4,237.3,91.8,237.3z M168.1,237.2c-0.6,0-1.2-0.4-1.4-1
	c-0.3-0.8,0.1-1.6,0.9-1.9c1.8-0.7,3.7-1.4,5.5-2.1c0.8-0.3,1.6,0,2,0.8c0.3,0.8,0,1.6-0.8,2c-1.8,0.8-3.7,1.5-5.6,2.2
	C168.5,237.2,168.3,237.2,168.1,237.2z M80.7,232.6c-0.2,0-0.4,0-0.7-0.2c-1.8-0.9-3.6-1.8-5.4-2.8c-0.7-0.4-1-1.3-0.6-2
	c0.4-0.7,1.3-1,2-0.6c1.7,1,3.5,1.9,5.2,2.7c0.7,0.4,1.1,1.3,0.7,2C81.8,232.3,81.3,232.6,80.7,232.6z M179.1,232.6
	c-0.6,0-1.1-0.3-1.3-0.8c-0.4-0.7-0.1-1.6,0.7-2c1.8-0.9,3.5-1.8,5.2-2.7c0.7-0.4,1.6-0.1,2,0.6c0.4,0.7,0.1,1.6-0.6,2
	c-1.8,1-3.6,1.9-5.4,2.8C179.6,232.5,179.3,232.6,179.1,232.6z M70.2,226.8c-0.3,0-0.5-0.1-0.8-0.2c-1.7-1.1-3.4-2.2-5.1-3.4
	c-0.7-0.5-0.8-1.4-0.4-2.1c0.5-0.7,1.4-0.8,2.1-0.4c1.6,1.1,3.3,2.2,4.9,3.3c0.7,0.4,0.9,1.4,0.5,2.1
	C71.2,226.5,70.7,226.8,70.2,226.8z M189.6,226.8c-0.5,0-1-0.2-1.3-0.7c-0.4-0.7-0.2-1.6,0.5-2.1c1.7-1,3.3-2.1,4.9-3.3
	c0.7-0.5,1.6-0.3,2.1,0.4c0.5,0.7,0.3,1.6-0.4,2.1c-1.7,1.2-3.3,2.3-5,3.4C190.1,226.7,189.8,226.8,189.6,226.8z M60.4,219.9
	c-0.3,0-0.7-0.1-0.9-0.3c-1.6-1.2-3.2-2.5-4.7-3.9c-0.6-0.5-0.7-1.5-0.1-2.1c0.5-0.6,1.5-0.7,2.1-0.1c1.5,1.3,3,2.6,4.6,3.8
	c0.7,0.5,0.8,1.5,0.3,2.1C61.3,219.7,60.9,219.9,60.4,219.9z M199.4,219.9c-0.4,0-0.9-0.2-1.2-0.6c-0.5-0.7-0.4-1.6,0.3-2.1
	c1.5-1.2,3.1-2.5,4.5-3.8c0.6-0.5,1.6-0.5,2.1,0.1c0.5,0.6,0.5,1.6-0.1,2.1c-1.5,1.3-3.1,2.6-4.7,3.9
	C200,219.8,199.7,219.9,199.4,219.9z M51.4,212c-0.4,0-0.8-0.1-1-0.4c-1.4-1.4-2.9-2.9-4.2-4.3c-0.6-0.6-0.5-1.6,0.1-2.1
	c0.6-0.6,1.6-0.5,2.1,0.1c1.3,1.4,2.7,2.9,4.1,4.2c0.6,0.6,0.6,1.5,0,2.1C52.2,211.9,51.8,212,51.4,212z M208.4,212
	c-0.4,0-0.8-0.2-1.1-0.5c-0.6-0.6-0.6-1.5,0-2.1c1.4-1.4,2.8-2.8,4.1-4.2c0.6-0.6,1.5-0.6,2.1-0.1c0.6,0.6,0.6,1.5,0.1,2.1
	c-1.4,1.5-2.8,2.9-4.2,4.3C209.1,211.9,208.7,212,208.4,212z M43.3,203.2c-0.4,0-0.9-0.2-1.2-0.5c-1.3-1.6-2.6-3.2-3.8-4.8
	c-0.5-0.7-0.4-1.6,0.3-2.1c0.7-0.5,1.6-0.4,2.1,0.3c1.2,1.6,2.4,3.1,3.7,4.6c0.5,0.6,0.4,1.6-0.2,2.1
	C44,203.1,43.6,203.2,43.3,203.2z M216.5,203.2c-0.3,0-0.7-0.1-1-0.3c-0.6-0.5-0.7-1.5-0.2-2.1c1.3-1.5,2.5-3.1,3.7-4.6
	c0.5-0.7,1.4-0.8,2.1-0.3c0.7,0.5,0.8,1.4,0.3,2.1c-1.2,1.6-2.5,3.2-3.8,4.8C217.3,203,216.9,203.2,216.5,203.2z M36.2,193.6
	c-0.5,0-1-0.2-1.3-0.7c-1.1-1.7-2.2-3.4-3.2-5.1c-0.4-0.7-0.2-1.6,0.5-2.1c0.7-0.4,1.6-0.2,2.1,0.5c1,1.7,2.1,3.4,3.1,5
	c0.5,0.7,0.3,1.6-0.4,2.1C36.7,193.6,36.4,193.6,36.2,193.6z M223.6,193.6c-0.3,0-0.6-0.1-0.8-0.3c-0.7-0.5-0.9-1.4-0.4-2.1
	c1.1-1.6,2.1-3.3,3.1-5c0.4-0.7,1.3-0.9,2.1-0.5c0.7,0.4,1,1.3,0.5,2.1c-1,1.7-2.1,3.5-3.2,5.1C224.6,193.4,224.1,193.6,223.6,193.6
	z M30.1,183.3c-0.5,0-1.1-0.3-1.3-0.8c-0.9-1.8-1.8-3.6-2.7-5.4c-0.3-0.8,0-1.6,0.7-2c0.8-0.3,1.6,0,2,0.7c0.8,1.8,1.7,3.6,2.6,5.3
	c0.4,0.7,0.1,1.6-0.6,2C30.5,183.3,30.3,183.3,30.1,183.3z M229.7,183.3c-0.2,0-0.5-0.1-0.7-0.2c-0.7-0.4-1-1.3-0.6-2
	c0.9-1.7,1.8-3.5,2.6-5.3c0.3-0.8,1.2-1.1,2-0.7c0.8,0.3,1.1,1.2,0.7,2c-0.8,1.8-1.7,3.7-2.7,5.5C230.8,183,230.3,183.3,229.7,183.3
	z M25.1,172.5c-0.6,0-1.2-0.4-1.4-1c-0.7-1.9-1.4-3.8-2.1-5.7c-0.3-0.8,0.2-1.6,1-1.9c0.8-0.3,1.6,0.2,1.9,1c0.6,1.9,1.3,3.7,2,5.6
	c0.3,0.8-0.1,1.6-0.8,1.9C25.5,172.4,25.3,172.5,25.1,172.5z M234.7,172.4c-0.2,0-0.4,0-0.5-0.1c-0.8-0.3-1.2-1.2-0.9-1.9
	c0.7-1.8,1.4-3.7,2-5.6c0.3-0.8,1.1-1.2,1.9-1c0.8,0.3,1.2,1.1,1,1.9c-0.6,1.9-1.3,3.8-2.1,5.7C235.9,172,235.3,172.4,234.7,172.4z
	 M21.4,161.1c-0.7,0-1.3-0.4-1.4-1.1c-0.5-1.9-1-3.9-1.4-5.9c-0.2-0.8,0.3-1.6,1.1-1.8c0.8-0.2,1.6,0.3,1.8,1.1
	c0.4,1.9,0.9,3.8,1.4,5.7c0.2,0.8-0.3,1.6-1.1,1.8C21.6,161.1,21.5,161.1,21.4,161.1z M238.5,161c-0.1,0-0.3,0-0.4-0.1
	c-0.8-0.2-1.3-1-1.1-1.8c0.5-1.9,1-3.8,1.4-5.7c0.2-0.8,1-1.3,1.8-1.2c0.8,0.2,1.3,1,1.2,1.8c-0.4,2-0.9,4-1.4,5.9
	C239.7,160.5,239.1,161,238.5,161z M18.8,149.4c-0.7,0-1.4-0.5-1.5-1.3c-0.3-2-0.6-4-0.8-6c-0.1-0.8,0.5-1.6,1.3-1.7
	c0.8-0.1,1.6,0.5,1.7,1.3c0.2,1.9,0.5,3.9,0.8,5.9c0.1,0.8-0.4,1.6-1.2,1.7C19,149.4,18.9,149.4,18.8,149.4z M241,149.3
	c-0.1,0-0.2,0-0.2,0c-0.8-0.1-1.4-0.9-1.2-1.7c0.3-1.9,0.6-3.9,0.8-5.9c0.1-0.8,0.8-1.4,1.6-1.3c0.8,0.1,1.4,0.8,1.3,1.6
	c-0.2,2-0.5,4-0.8,6C242.3,148.8,241.7,149.3,241,149.3z M17.6,137.5c-0.8,0-1.5-0.6-1.5-1.4c-0.1-2-0.2-4-0.2-6.1
	c0-0.8,0.7-1.5,1.5-1.5c0,0,0,0,0,0c0.8,0,1.5,0.7,1.5,1.5c0,2,0.1,4,0.2,5.9C19.1,136.7,18.5,137.5,17.6,137.5
	C17.6,137.5,17.6,137.5,17.6,137.5z M242.2,137.4C242.2,137.4,242.2,137.4,242.2,137.4c-0.9,0-1.5-0.8-1.5-1.6
	c0.1-2,0.2-3.9,0.2-5.9v-0.3c0-0.8,0.7-1.5,1.5-1.5s1.5,0.7,1.5,1.5v0.3c0,2-0.1,4.1-0.2,6.1C243.7,136.8,243,137.4,242.2,137.4z
	 M17.5,125.5C17.5,125.5,17.5,125.5,17.5,125.5c-0.9,0-1.5-0.7-1.5-1.6c0.1-2,0.3-4,0.5-6c0.1-0.8,0.8-1.4,1.6-1.3
	c0.8,0.1,1.4,0.8,1.3,1.6c-0.2,1.9-0.4,3.9-0.5,5.9C19,124.9,18.3,125.5,17.5,125.5z M242.2,125.1c-0.8,0-1.5-0.6-1.5-1.4
	c-0.1-2-0.3-3.9-0.5-5.9c-0.1-0.8,0.5-1.6,1.3-1.7c0.8-0.1,1.6,0.5,1.7,1.3c0.2,2,0.4,4,0.5,6C243.8,124.4,243.1,125.1,242.2,125.1
	C242.3,125.1,242.2,125.1,242.2,125.1z M18.8,113.6c-0.1,0-0.2,0-0.2,0c-0.8-0.1-1.4-0.9-1.2-1.7c0.3-2,0.7-4,1.1-6
	c0.2-0.8,1-1.3,1.8-1.2c0.8,0.2,1.3,1,1.2,1.8c-0.4,1.9-0.8,3.9-1.1,5.8C20.1,113.1,19.5,113.6,18.8,113.6z M240.9,113.2
	c-0.7,0-1.4-0.5-1.5-1.3c-0.3-1.9-0.7-3.9-1.1-5.8c-0.2-0.8,0.3-1.6,1.1-1.8c0.8-0.2,1.6,0.3,1.8,1.1c0.4,2,0.8,4,1.1,6
	c0.1,0.8-0.4,1.6-1.2,1.7C241.1,113.2,241,113.2,240.9,113.2z M21.3,101.9c-0.1,0-0.3,0-0.4-0.1c-0.8-0.2-1.3-1-1.1-1.8
	c0.5-1.9,1.1-3.9,1.7-5.8c0.3-0.8,1.1-1.2,1.9-1c0.8,0.3,1.2,1.1,1,1.9c-0.6,1.9-1.2,3.8-1.7,5.7C22.6,101.5,22,101.9,21.3,101.9z
	 M238.4,101.6c-0.7,0-1.3-0.4-1.4-1.1c-0.5-1.9-1.1-3.8-1.7-5.7c-0.3-0.8,0.2-1.6,0.9-1.9c0.8-0.3,1.6,0.2,1.9,0.9
	c0.6,1.9,1.2,3.9,1.8,5.8c0.2,0.8-0.3,1.6-1,1.8C238.7,101.5,238.5,101.6,238.4,101.6z M25,90.5c-0.2,0-0.4,0-0.5-0.1
	c-0.8-0.3-1.2-1.2-0.9-1.9c0.7-1.9,1.5-3.8,2.4-5.6c0.3-0.8,1.2-1.1,2-0.7c0.8,0.3,1.1,1.2,0.7,2c-0.8,1.8-1.6,3.6-2.3,5.5
	C26.2,90.2,25.6,90.5,25,90.5z M234.6,90.2c-0.6,0-1.2-0.4-1.4-1c-0.7-1.8-1.5-3.6-2.3-5.4c-0.3-0.8,0-1.6,0.7-2
	c0.8-0.3,1.6,0,2,0.7c0.8,1.8,1.6,3.7,2.4,5.6c0.3,0.8-0.1,1.6-0.8,1.9C235,90.2,234.8,90.2,234.6,90.2z M30,79.6
	c-0.2,0-0.5-0.1-0.7-0.2c-0.7-0.4-1-1.3-0.6-2c0.9-1.8,1.9-3.6,2.9-5.3c0.4-0.7,1.3-1,2.1-0.5c0.7,0.4,1,1.3,0.5,2.1
	c-1,1.7-2,3.4-2.9,5.2C31.1,79.3,30.5,79.6,30,79.6z M229.6,79.3c-0.5,0-1.1-0.3-1.3-0.8c-0.9-1.7-1.9-3.5-2.9-5.2
	c-0.4-0.7-0.2-1.6,0.5-2.1c0.7-0.4,1.6-0.2,2.1,0.5c1,1.7,2,3.5,3,5.3c0.4,0.7,0.1,1.6-0.6,2C230.1,79.3,229.9,79.3,229.6,79.3z
	 M36.1,69.3c-0.3,0-0.6-0.1-0.8-0.3c-0.7-0.5-0.9-1.4-0.4-2.1c1.1-1.7,2.3-3.4,3.5-5c0.5-0.7,1.4-0.8,2.1-0.3
	c0.7,0.5,0.8,1.4,0.3,2.1c-1.2,1.6-2.3,3.2-3.4,4.8C37,69,36.6,69.3,36.1,69.3z M223.5,69c-0.5,0-1-0.2-1.2-0.7
	c-1.1-1.6-2.2-3.3-3.4-4.8c-0.5-0.7-0.4-1.6,0.3-2.1c0.7-0.5,1.6-0.4,2.1,0.3c1.2,1.6,2.4,3.3,3.5,5c0.5,0.7,0.3,1.6-0.4,2.1
	C224.1,69,223.8,69,223.5,69z M43.2,59.7c-0.3,0-0.7-0.1-1-0.3c-0.6-0.5-0.7-1.5-0.2-2.1c1.3-1.6,2.6-3.1,4-4.6
	c0.6-0.6,1.5-0.6,2.1-0.1c0.6,0.6,0.6,1.5,0.1,2.1c-1.3,1.4-2.6,2.9-3.9,4.4C44.1,59.5,43.6,59.7,43.2,59.7z M216.4,59.4
	c-0.4,0-0.9-0.2-1.2-0.5c-1.3-1.5-2.6-3-3.9-4.4c-0.6-0.6-0.5-1.6,0.1-2.1c0.6-0.6,1.6-0.5,2.1,0.1c1.4,1.5,2.7,3,4,4.6
	c0.5,0.6,0.4,1.6-0.2,2.1C217.1,59.3,216.7,59.4,216.4,59.4z M51.3,50.9c-0.4,0-0.8-0.2-1.1-0.5c-0.6-0.6-0.6-1.5,0-2.1
	c1.4-1.4,2.9-2.8,4.5-4.1c0.6-0.5,1.6-0.5,2.1,0.1c0.5,0.6,0.5,1.6-0.1,2.1c-1.5,1.3-2.9,2.6-4.3,4C52.1,50.7,51.7,50.9,51.3,50.9z
	 M208.2,50.7c-0.4,0-0.8-0.1-1-0.4c-1.4-1.4-2.9-2.7-4.3-4c-0.6-0.5-0.7-1.5-0.1-2.1c0.5-0.6,1.5-0.7,2.1-0.1c1.5,1.3,3,2.7,4.5,4.1
	c0.6,0.6,0.6,1.5,0,2.1C209,50.5,208.6,50.7,208.2,50.7z M60.3,43c-0.4,0-0.9-0.2-1.2-0.6c-0.5-0.7-0.4-1.6,0.3-2.1
	c1.6-1.2,3.2-2.5,4.9-3.6c0.7-0.5,1.6-0.3,2.1,0.4c0.5,0.7,0.3,1.6-0.4,2.1c-1.6,1.1-3.2,2.3-4.7,3.5C61,42.9,60.7,43,60.3,43z
	 M199.2,42.8c-0.3,0-0.6-0.1-0.9-0.3c-1.5-1.2-3.1-2.4-4.7-3.5c-0.7-0.5-0.8-1.4-0.4-2.1c0.5-0.7,1.4-0.8,2.1-0.4
	c1.6,1.2,3.3,2.4,4.9,3.6c0.7,0.5,0.8,1.5,0.3,2.1C200.1,42.6,199.7,42.8,199.2,42.8z M70.1,36.1c-0.5,0-1-0.2-1.3-0.7
	c-0.4-0.7-0.2-1.6,0.5-2.1c1.7-1.1,3.5-2.1,5.2-3.1c0.7-0.4,1.6-0.1,2,0.6s0.1,1.6-0.6,2c-1.7,1-3.4,2-5.1,3
	C70.7,36,70.4,36.1,70.1,36.1z M189.4,35.9c-0.3,0-0.5-0.1-0.8-0.2c-1.7-1-3.4-2-5.1-3c-0.7-0.4-1-1.3-0.6-2s1.3-1,2-0.6
	c1.8,1,3.5,2,5.2,3.1c0.7,0.4,0.9,1.4,0.5,2.1C190.4,35.7,189.9,35.9,189.4,35.9z M80.6,30.3c-0.6,0-1.1-0.3-1.3-0.8
	c-0.4-0.7-0.1-1.6,0.7-2c1.8-0.9,3.7-1.7,5.5-2.5c0.8-0.3,1.6,0,2,0.8c0.3,0.8,0,1.6-0.8,2c-1.8,0.8-3.6,1.6-5.4,2.4
	C81,30.2,80.8,30.3,80.6,30.3z M178.9,30.1c-0.2,0-0.4,0-0.7-0.2c-1.8-0.9-3.6-1.7-5.4-2.4c-0.8-0.3-1.1-1.2-0.8-2
	c0.3-0.8,1.2-1.1,2-0.8c1.9,0.8,3.7,1.6,5.5,2.5c0.7,0.4,1.1,1.3,0.7,2C180,29.8,179.5,30.1,178.9,30.1z M91.6,25.6
	c-0.6,0-1.2-0.4-1.4-1c-0.3-0.8,0.1-1.6,0.9-1.9c1.9-0.7,3.8-1.3,5.8-1.9c0.8-0.2,1.6,0.2,1.9,1c0.2,0.8-0.2,1.6-1,1.9
	c-1.9,0.6-3.8,1.2-5.6,1.9C91.9,25.6,91.7,25.6,91.6,25.6z M167.9,25.5c-0.2,0-0.3,0-0.5-0.1c-1.8-0.7-3.7-1.3-5.6-1.8
	c-0.8-0.2-1.2-1.1-1-1.9c0.2-0.8,1.1-1.2,1.9-1c1.9,0.6,3.9,1.2,5.8,1.9c0.8,0.3,1.2,1.1,0.9,1.9C169.1,25.1,168.5,25.5,167.9,25.5z
	 M103,22.1c-0.7,0-1.3-0.5-1.5-1.1c-0.2-0.8,0.3-1.6,1.1-1.8c2-0.5,4-0.9,5.9-1.3c0.8-0.2,1.6,0.4,1.8,1.2c0.2,0.8-0.4,1.6-1.2,1.8
	c-1.9,0.4-3.9,0.8-5.8,1.3C103.2,22.1,103.1,22.1,103,22.1z M156.4,22c-0.1,0-0.2,0-0.4,0c-1.9-0.5-3.8-0.9-5.8-1.2
	c-0.8-0.2-1.4-0.9-1.2-1.7c0.2-0.8,0.9-1.4,1.7-1.2c2,0.4,4,0.8,5.9,1.3c0.8,0.2,1.3,1,1.1,1.8C157.7,21.6,157.1,22,156.4,22z
	 M114.8,19.9c-0.7,0-1.4-0.5-1.5-1.3c-0.1-0.8,0.5-1.6,1.3-1.7c2-0.3,4-0.5,6-0.6c0.8-0.1,1.5,0.5,1.6,1.4c0.1,0.8-0.5,1.5-1.4,1.6
	c-2,0.2-3.9,0.4-5.9,0.6C114.9,19.9,114.8,19.9,114.8,19.9z M144.6,19.8c-0.1,0-0.1,0-0.2,0c-2-0.3-3.9-0.5-5.9-0.6
	c-0.8-0.1-1.4-0.8-1.4-1.6c0.1-0.8,0.8-1.4,1.6-1.4c2,0.2,4,0.4,6,0.6c0.8,0.1,1.4,0.9,1.3,1.7C146,19.3,145.4,19.8,144.6,19.8z
	 M126.7,18.9c-0.8,0-1.5-0.6-1.5-1.5c0-0.8,0.6-1.5,1.5-1.5c2-0.1,4.1-0.1,6.1,0c0.8,0,1.5,0.7,1.5,1.5c0,0.8-0.7,1.5-1.5,1.5
	C130.7,18.9,128.7,18.9,126.7,18.9C126.7,18.9,126.7,18.9,126.7,18.9z"/>
</svg>
