<svg version="1.1" id="Layer_1" xmlns="http://www.w3.org/2000/svg" xmlns:xlink="http://www.w3.org/1999/xlink" x="0px" y="0px"
	 viewBox="0 0 118.9 149.8" style="enable-background:new 0 0 118.9 149.8;" xml:space="preserve">
<style type="text/css">
	.st0{fill:#515050;}
	.st1{fill:#EFEFEF;}
	.st2{fill:#F4F4F4;}
	.st3{fill:#EAB85E;}
</style>
<g>
	<g>
		
			<ellipse transform="matrix(0.9616 -0.2744 0.2744 0.9616 -19.7211 31.0855)" class="st0" cx="101.2" cy="86" rx="15.1" ry="32.9"/>
		<path d="M111.4,117.8c-0.3,0.1-0.7,0.3-1,0.4c-4.1,1.2-8.9-1.1-13.5-6.4c-4.5-5.2-8.3-12.8-10.8-21.3c-2.4-8.5-3.2-17-2.2-23.9
			c1.1-7,3.9-11.5,8-12.7s8.9,1.1,13.5,6.4c4.5,5.2,8.3,12.8,10.8,21.3l0,0c2.4,8.5,3.2,17,2.2,23.9
			C117.4,111.8,115,116.1,111.4,117.8z M91.4,55.3c-7,3.2-8.9,18.4-4.2,34.8c4.9,17.1,15.2,29.1,22.9,26.9c7.7-2.3,10-18,5.1-35.1
			S100,52.8,92.3,55C92,55.1,91.7,55.2,91.4,55.3z"/>
	</g>
	<g>
		
			<ellipse transform="matrix(0.2744 -0.9616 0.9616 0.2744 -69.9148 79.4668)" class="st0" cx="17.7" cy="86.1" rx="32.9" ry="15.1"/>
		<path d="M0.4,105.4c-1-6.9-0.3-15.3,2.2-23.9l0,0C5,73,8.9,65.4,13.4,60.2c4.6-5.3,9.4-7.6,13.5-6.4c4.1,1.2,6.9,5.7,8,12.7
			c1,6.9,0.3,15.3-2.2,23.9c-2.4,8.5-6.3,16.1-10.8,21.3c-4.6,5.3-9.4,7.6-13.5,6.4c-0.3-0.1-0.7-0.2-1-0.4
			C3.8,116.1,1.4,111.8,0.4,105.4z M26.5,55c-7.7-2.3-18,9.8-22.9,26.9S1,114.7,8.7,117c7.7,2.3,18-9.8,22.9-26.9
			c4.7-16.4,2.8-31.6-4.2-34.8C27.1,55.2,26.8,55.1,26.5,55z"/>
	</g>
	<g>
		<ellipse transform="matrix(0.8463 -0.5328 0.5328 0.8463 1.6176 32.8693)" class="st0" cx="57.8" cy="13.6" rx="9.8" ry="14.2"/>
		<path d="M61.3,27.2c-4.3,0-9.2-3-12.4-8.1c-4.3-6.9-3.9-14.9,0.9-18c4.8-3,12.3,0.1,16.6,6.9c4.3,6.9,3.9,14.9-0.9,18
			C64.3,26.8,62.8,27.2,61.3,27.2z M54.1,1.1c-1.3,0-2.5,0.3-3.6,1c-4.3,2.7-4.5,10.1-0.6,16.4c4,6.3,10.7,9.3,15,6.6
			S69.4,15,65.5,8.7C62.5,3.9,58,1.1,54.1,1.1z"/>
	</g>
	<g>
		<ellipse class="st0" cx="59" cy="83.7" rx="49.9" ry="65.1"/>
		<path d="M59,149.5c-13.5,0-26.3-6.9-35.8-19.3c-9.5-12.4-14.7-28.9-14.7-46.4s5.2-34,14.7-46.4C32.8,24.9,45.5,18.1,59,18.1
			S85.3,25,94.8,37.4s14.7,28.9,14.7,46.4s-5.2,34-14.7,46.4C85.2,142.7,72.5,149.5,59,149.5z M59,19.3c-27.1,0-49.2,28.9-49.2,64.4
			s22.1,64.4,49.2,64.4s49.2-28.9,49.2-64.4S86.1,19.3,59,19.3z"/>
	</g>
	<ellipse class="st1" cx="59" cy="106.4" rx="40.7" ry="41.8"/>
	<g>
		<g>
			<g>
				<ellipse class="st2" cx="74.6" cy="42.8" rx="6.6" ry="6.4"/>
				<path d="M74.6,49.7c-3.9,0-7.1-3.1-7.1-6.9s3.2-6.9,7.1-6.9s7.1,3.1,7.1,6.9S78.5,49.7,74.6,49.7z M74.6,36.8
					c-3.4,0-6.1,2.7-6.1,5.9c0,3.3,2.7,5.9,6.1,5.9s6.1-2.7,6.1-5.9S78,36.8,74.6,36.8z"/>
			</g>
		</g>
		<ellipse cx="74.6" cy="42.8" rx="3.8" ry="3.7"/>
	</g>
	<g>
		<g>
			<g>
				<ellipse class="st2" cx="42" cy="42.4" rx="6.6" ry="6.4"/>
				<path d="M42,49.3c-3.9,0-7.1-3.1-7.1-6.9s3.2-6.9,7.1-6.9s7.1,3.1,7.1,6.9S45.9,49.3,42,49.3z M42,36.5c-3.4,0-6.1,2.7-6.1,5.9
					c0,3.3,2.7,5.9,6.1,5.9c3.4,0,6.1-2.7,6.1-5.9C48.1,39.1,45.4,36.5,42,36.5z"/>
			</g>
		</g>
		<ellipse cx="42" cy="42.4" rx="3.8" ry="3.7"/>
	</g>
	<g>
		<path class="st3" d="M42.5,51.8c-0.7-0.2-0.9-1-0.5-1.5c2-2.2,7.2-6.7,16.9-6.9c10-0.2,13.9,5,15.1,7.2c0.3,0.5,0,1.2-0.6,1.3
			C69.7,52.8,57.1,55.3,42.5,51.8z"/>
		<path d="M58.2,54.1c-4.7,0-10.1-0.5-15.8-1.8l0,0c-0.5-0.1-0.9-0.5-1-1s0-1,0.3-1.4c1.8-2.1,7.2-6.8,17.2-7
			c10.3-0.2,14.3,5.2,15.5,7.5c0.2,0.4,0.2,0.8,0,1.2s-0.5,0.7-1,0.8C71.3,53,65.6,54.1,58.2,54.1z M42.6,51.3
			c14.6,3.5,27.1,1,30.6,0.1c0.1,0,0.2-0.1,0.3-0.2c0-0.1,0.1-0.2,0-0.4c-1.1-2.1-4.9-7.1-14.6-6.9c-9.6,0.2-14.8,4.8-16.5,6.7
			c-0.1,0.2-0.1,0.3-0.1,0.4C42.3,51.1,42.4,51.3,42.6,51.3L42.6,51.3z"/>
	</g>
	<path d="M42,36.5c-8,0-14.8-1.6-14.8-3.4h1c0.3,0.6,4.9,2.4,13.8,2.4c27.4,0,44.2-3.1,44.2-5.4h1C87.2,34.8,60.2,36.5,42,36.5z"/>
	<g>
		<path d="M33.5,35.3c-0.3,1-0.4,2-0.4,3.1c0,5.6,4,10.1,8.9,10.1s8.9-4.5,8.9-10.1c0-0.9-0.1-1.7-0.3-2.5C47.8,36,44.9,36,42,36
			C38.6,36,35.8,35.7,33.5,35.3z"/>
	</g>
	<g>
		<g>
			<path class="st3" d="M39.2,137.1c0,0,2.3-6.3,6.7-6.7c4.3-0.3-3.7,19-6,19s-9.3-14.7-7-15.3C35.2,133.4,39.2,137.1,39.2,137.1z"
				/>
			<path d="M39.9,149.8c-2.3,0-7.3-10-7.8-14c-0.2-1.2,0.1-1.9,0.7-2.1c2.1-0.6,5.1,1.8,6.3,2.7c0.7-1.6,3-6.1,6.8-6.4
				c0.6,0,1,0.2,1.3,0.6c1.5,2.4-1.9,11.4-4.2,15.6C41,149.8,40.2,149.8,39.9,149.8z M33.5,134.4c-0.2,0-0.3,0-0.5,0.1
				c-0.1,0-0.3,0.3-0.1,1.2c0.6,4.3,5.6,13.3,7,13.3c0.2,0,1-0.6,2.3-3.1c2.8-5.2,5.4-13.1,4.3-14.8c-0.1-0.2-0.3-0.3-0.6-0.3
				c-4,0.3-6.3,6.3-6.3,6.4c0,0.1-0.2,0.2-0.3,0.3c-0.1,0-0.3,0-0.4-0.1C38,136.5,35.3,134.4,33.5,134.4z"/>
		</g>
		<g>
			<path class="st3" d="M78.6,136.8c0,0-2.3-6.3-6.7-6.7c-4.3-0.3,3.7,19,6,19s9.3-14.7,7-15.3C82.6,133.1,78.6,136.8,78.6,136.8z"
				/>
			<path d="M77.9,149.5c-0.3,0-1.1,0-3.1-3.5c-2.3-4.2-5.8-13.3-4.2-15.6c0.3-0.5,0.7-0.7,1.3-0.6c3.8,0.3,6.1,4.8,6.8,6.4
				c1.1-1,4.2-3.3,6.3-2.7c0.6,0.2,0.9,0.9,0.7,2.1C85.2,139.4,80.2,149.5,77.9,149.5z M71.8,130.5c-0.2,0-0.4,0.1-0.5,0.3
				c-1.1,1.7,1.4,9.6,4.3,14.8c1.4,2.5,2.2,3.1,2.3,3.1c1.4,0,6.4-9,7-13.3c0.1-0.9,0-1.2-0.1-1.2c-1.7-0.5-4.9,1.9-5.9,2.9
				c-0.1,0.1-0.2,0.1-0.4,0.1c-0.1,0-0.2-0.1-0.3-0.3C78.2,136.8,75.9,130.8,71.8,130.5C71.9,130.5,71.8,130.5,71.8,130.5z"/>
		</g>
	</g>
</g>
</svg>
