{
    "asset" : {
        "generator" : "Khronos glTF Blender I/O v1.6.16",
        "version" : "2.0"
    },
    "scene" : 0,
    "scenes" : [
        {
            "name" : "Scene",
            "nodes" : [
                0,
                1,
                2
            ]
        }
    ],
    "nodes" : [
        {
            "name" : "Light",
            "rotation" : [
                0.16907575726509094,
                0.7558803558349609,
                -0.27217137813568115,
                0.570947527885437
            ],
            "translation" : [
                4.076245307922363,
                5.903861999511719,
                -1.0054539442062378
            ]
        },
        {
            "name" : "Camera",
            "rotation" : [
                0.4853956997394562,
                0.5141896605491638,
                -0.48539572954177856,
                0.5141896605491638
            ],
            "translation" : [
                15.110435485839844,
                1.2650235891342163,
                0
            ]
        },
        {
            "mesh" : 0,
            "name" : "Body.008",
            "rotation" : [
                0.10428623110055923,
                0,
                0,
                0.9945473074913025
            ],
            "scale" : [
                0.7832875847816467,
                1.1342780590057373,
                0.32877129316329956
            ]
        }
    ],
    "materials" : [
        {
            "doubleSided" : true,
            "name" : "Clay.004",
            "pbrMetallicRoughness" : {
                "baseColorFactor" : [
                    0.02197938784956932,
                    0.02197938784956932,
                    0.02197938784956932,
                    1
                ],
                "metallicFactor" : 0
            }
        },
        {
            "doubleSided" : true,
            "name" : "Yello",
            "pbrMetallicRoughness" : {
                "baseColorFactor" : [
                    1,
                    0.4937555491924286,
                    0.08494239300489426,
                    1
                ],
                "metallicFactor" : 0,
                "roughnessFactor" : 0.8794326186180115
            }
        },
        {
            "doubleSided" : true,
            "name" : "Clay",
            "pbrMetallicRoughness" : {
                "baseColorFactor" : [
                    0.015995007008314133,
                    0.015995007008314133,
                    0.015995007008314133,
                    1
                ],
                "metallicFactor" : 0
            }
        },
        {
            "doubleSided" : true,
            "name" : "Clay.003",
            "pbrMetallicRoughness" : {
                "baseColorFactor" : [
                    0.8006561994552612,
                    0.8006561994552612,
                    0.8006561994552612,
                    1
                ],
                "metallicFactor" : 0
            }
        },
        {
            "doubleSided" : true,
            "name" : "Clay.005",
            "pbrMetallicRoughness" : {
                "metallicFactor" : 0
            }
        },
        {
            "doubleSided" : true,
            "name" : "Clay.006",
            "pbrMetallicRoughness" : {
                "baseColorFactor" : [
                    0.015995007008314133,
                    0.015995007008314133,
                    0.015995007008314133,
                    1
                ],
                "metallicFactor" : 0
            }
        }
    ],
    "meshes" : [
        {
            "name" : "Sphere.021",
            "primitives" : [
                {
                    "attributes" : {
                        "POSITION" : 0,
                        "NORMAL" : 1,
                        "TEXCOORD_0" : 2
                    },
                    "indices" : 3,
                    "material" : 0
                },
                {
                    "attributes" : {
                        "POSITION" : 4,
                        "NORMAL" : 5,
                        "TEXCOORD_0" : 6
                    },
                    "indices" : 7,
                    "material" : 1
                },
                {
                    "attributes" : {
                        "POSITION" : 8,
                        "NORMAL" : 9,
                        "TEXCOORD_0" : 10
                    },
                    "indices" : 11,
                    "material" : 2
                },
                {
                    "attributes" : {
                        "POSITION" : 12,
                        "NORMAL" : 13,
                        "TEXCOORD_0" : 14
                    },
                    "indices" : 15,
                    "material" : 3
                },
                {
                    "attributes" : {
                        "POSITION" : 16,
                        "NORMAL" : 17,
                        "TEXCOORD_0" : 18
                    },
                    "indices" : 19,
                    "material" : 4
                },
                {
                    "attributes" : {
                        "POSITION" : 20,
                        "NORMAL" : 21,
                        "TEXCOORD_0" : 22
                    },
                    "indices" : 23,
                    "material" : 5
                }
            ]
        }
    ],
    "accessors" : [
        {
            "bufferView" : 0,
            "componentType" : 5126,
            "count" : 4664,
            "max" : [
                0.8374191522598267,
                1.203658938407898,
                5.698631286621094
            ],
            "min" : [
                -1.1370432376861572,
                -1.2026145458221436,
                -5.091006278991699
            ],
            "type" : "VEC3"
        },
        {
            "bufferView" : 1,
            "componentType" : 5126,
            "count" : 4664,
            "type" : "VEC3"
        },
        {
            "bufferView" : 2,
            "componentType" : 5126,
            "count" : 4664,
            "type" : "VEC2"
        },
        {
            "bufferView" : 3,
            "componentType" : 5123,
            "count" : 23808,
            "type" : "SCALAR"
        },
        {
            "bufferView" : 4,
            "componentType" : 5126,
            "count" : 13565,
            "max" : [
                2.186314105987549,
                1.1373109817504883,
                3.03940486907959
            ],
            "min" : [
                -1.2450206279754639,
                -1.6716082096099854,
                -2.547942638397217
            ],
            "type" : "VEC3"
        },
        {
            "bufferView" : 5,
            "componentType" : 5126,
            "count" : 13565,
            "type" : "VEC3"
        },
        {
            "bufferView" : 6,
            "componentType" : 5126,
            "count" : 13565,
            "type" : "VEC2"
        },
        {
            "bufferView" : 7,
            "componentType" : 5123,
            "count" : 71424,
            "type" : "SCALAR"
        },
        {
            "bufferView" : 8,
            "componentType" : 5126,
            "count" : 4664,
            "max" : [
                1.8204692602157593,
                2.2513105869293213,
                4.749111175537109
            ],
            "min" : [
                -2.1256515979766846,
                -1.7630391120910645,
                -4.752821445465088
            ],
            "type" : "VEC3"
        },
        {
            "bufferView" : 9,
            "componentType" : 5126,
            "count" : 4664,
            "type" : "VEC3"
        },
        {
            "bufferView" : 10,
            "componentType" : 5126,
            "count" : 4664,
            "type" : "VEC2"
        },
        {
            "bufferView" : 11,
            "componentType" : 5123,
            "count" : 23808,
            "type" : "SCALAR"
        },
        {
            "bufferView" : 12,
            "componentType" : 5126,
            "count" : 2332,
            "max" : [
                1.9756433963775635,
                0.5181427597999573,
                3.8421688079833984
            ],
            "min" : [
                0.34326615929603577,
                -1.718144178390503,
                -2.9138498306274414
            ],
            "type" : "VEC3"
        },
        {
            "bufferView" : 13,
            "componentType" : 5126,
            "count" : 2332,
            "type" : "VEC3"
        },
        {
            "bufferView" : 14,
            "componentType" : 5126,
            "count" : 2332,
            "type" : "VEC2"
        },
        {
            "bufferView" : 15,
            "componentType" : 5123,
            "count" : 11904,
            "type" : "SCALAR"
        },
        {
            "bufferView" : 16,
            "componentType" : 5126,
            "count" : 4665,
            "max" : [
                1.490903615951538,
                1.3694238662719727,
                1.1597380638122559
            ],
            "min" : [
                1.0476815700531006,
                0.845169186592102,
                -2.780557870864868
            ],
            "type" : "VEC3"
        },
        {
            "bufferView" : 17,
            "componentType" : 5126,
            "count" : 4665,
            "type" : "VEC3"
        },
        {
            "bufferView" : 18,
            "componentType" : 5126,
            "count" : 4665,
            "type" : "VEC2"
        },
        {
            "bufferView" : 19,
            "componentType" : 5123,
            "count" : 23808,
            "type" : "SCALAR"
        },
        {
            "bufferView" : 20,
            "componentType" : 5126,
            "count" : 1118,
            "max" : [
                1.5378395318984985,
                1.2741316556930542,
                0.832829475402832
            ],
            "min" : [
                1.3438045978546143,
                0.943140983581543,
                -2.457442045211792
            ],
            "type" : "VEC3"
        },
        {
            "bufferView" : 21,
            "componentType" : 5126,
            "count" : 1118,
            "type" : "VEC3"
        },
        {
            "bufferView" : 22,
            "componentType" : 5126,
            "count" : 1118,
            "type" : "VEC2"
        },
        {
            "bufferView" : 23,
            "componentType" : 5123,
            "count" : 5760,
            "type" : "SCALAR"
        }
    ],
    "bufferViews" : [
        {
            "buffer" : 0,
            "byteLength" : 55968,
            "byteOffset" : 0
        },
        {
            "buffer" : 0,
            "byteLength" : 55968,
            "byteOffset" : 55968
        },
        {
            "buffer" : 0,
            "byteLength" : 37312,
            "byteOffset" : 111936
        },
        {
            "buffer" : 0,
            "byteLength" : 47616,
            "byteOffset" : 149248
        },
        {
            "buffer" : 0,
            "byteLength" : 162780,
            "byteOffset" : 196864
        },
        {
            "buffer" : 0,
            "byteLength" : 162780,
            "byteOffset" : 359644
        },
        {
            "buffer" : 0,
            "byteLength" : 108520,
            "byteOffset" : 522424
        },
        {
            "buffer" : 0,
            "byteLength" : 142848,
            "byteOffset" : 630944
        },
        {
            "buffer" : 0,
            "byteLength" : 55968,
            "byteOffset" : 773792
        },
        {
            "buffer" : 0,
            "byteLength" : 55968,
            "byteOffset" : 829760
        },
        {
            "buffer" : 0,
            "byteLength" : 37312,
            "byteOffset" : 885728
        },
        {
            "buffer" : 0,
            "byteLength" : 47616,
            "byteOffset" : 923040
        },
        {
            "buffer" : 0,
            "byteLength" : 27984,
            "byteOffset" : 970656
        },
        {
            "buffer" : 0,
            "byteLength" : 27984,
            "byteOffset" : 998640
        },
        {
            "buffer" : 0,
            "byteLength" : 18656,
            "byteOffset" : 1026624
        },
        {
            "buffer" : 0,
            "byteLength" : 23808,
            "byteOffset" : 1045280
        },
        {
            "buffer" : 0,
            "byteLength" : 55980,
            "byteOffset" : 1069088
        },
        {
            "buffer" : 0,
            "byteLength" : 55980,
            "byteOffset" : 1125068
        },
        {
            "buffer" : 0,
            "byteLength" : 37320,
            "byteOffset" : 1181048
        },
        {
            "buffer" : 0,
            "byteLength" : 47616,
            "byteOffset" : 1218368
        },
        {
            "buffer" : 0,
            "byteLength" : 13416,
            "byteOffset" : 1265984
        },
        {
            "buffer" : 0,
            "byteLength" : 13416,
            "byteOffset" : 1279400
        },
        {
            "buffer" : 0,
            "byteLength" : 8944,
            "byteOffset" : 1292816
        },
        {
            "buffer" : 0,
            "byteLength" : 11520,
            "byteOffset" : 1301760
        }
    ],
    "buffers" : [
        {
            "byteLength" : 1313280,
            "uri" : "data:application/octet-stream;base64,"
        }
    ]
}
